<?xml version="1.0" encoding="utf-8"?>
<!DOCTYPE svg PUBLIC "-//W3C//DTD SVG 1.1//EN" "http://www.w3.org/Graphics/SVG/1.1/DTD/svg11.dtd">
<svg xmlns="http://www.w3.org/2000/svg">

    <!-- arrow down (header dropdown button) -->
    <symbol id="arrow_down">
        <path d="m18.87 2.42-8.57 8.57c-.39.39-1.03.39-1.43 0l-8.57-8.57c-.4-.4-.4-1.04 0-1.43l.69-.69c.39-.4 1.03-.4 1.43 0l6.81 6.81c.2.2.52.2.72 0l6.8-6.81c.39-.39 1.03-.39 1.43 0l.69.69c.39.39.39 1.03 0 1.43z" fill="currentColor"/>
    </symbol>

    <!-- 1 column (portfolio filter button) -->
    <symbol id="1col">
        <rect y="0" width="18" height="8" rx="1" ry="1" fill="currentColor"/>
        <rect y="10" width="18" height="8" rx="1" ry="1" fill="currentColor"/>
    </symbol>

    <!-- 2 column (portfolio filter button) -->
    <symbol id="2col">
        <rect width="8" height="8" rx=".6652" ry=".6652" fill="currentColor"/>
        <rect y="10" width="8" height="8" rx=".6652" ry=".6652" fill="currentColor"/>
        <rect x="10" width="8" height="8" rx=".6652" ry=".6652" fill="currentColor"/>
        <rect x="10" y="10" width="8" height="8" rx=".6652" ry=".6652" fill="currentColor"/>
    </symbol>

    <!-- wave (skills inner bar) -->
    <symbol id="wave">
        <path d="m2.2266 0c-7.7128 11.2371 7.7116 12.7599 0 24-7.7128 11.2371 7.7116 12.7599 0 24H14V0H2.2266z" fill="currentColor"/> 
    </symbol>
</svg>

