<?xml version="1.0" encoding="utf-8"?>
<!DOCTYPE svg PUBLIC "-//W3C//DTD SVG 1.1//EN" "http://www.w3.org/Graphics/SVG/1.1/DTD/svg11.dtd">
<svg xmlns="http://www.w3.org/2000/svg">

    <!-- arrow down (header dropdown button) -->
    <symbol id="arrow_down">
        <path d="m18.87 2.42-8.57 8.57c-.39.39-1.03.39-1.43 0l-8.57-8.57c-.4-.4-.4-1.04 0-1.43l.69-.69c.39-.4 1.03-.4 1.43 0l6.81 6.81c.2.2.52.2.72 0l6.8-6.81c.39-.39 1.03-.39 1.43 0l.69.69c.39.39.39 1.03 0 1.43z" fill="currentColor"/>
    </symbol>

    <!-- 1 column (portfolio filter button) -->
    <symbol id="1col">
        <rect y="0" width="18" height="8" rx="1" ry="1" fill="currentColor"/>
        <rect y="10" width="18" height="8" rx="1" ry="1" fill="currentColor"/>
    </symbol>

    <!-- 2 column (portfolio filter button) -->
    <symbol id="2col">
        <rect width="8" height="8" rx=".6652" ry=".6652" fill="currentColor"/>
        <rect y="10" width="8" height="8" rx=".6652" ry=".6652" fill="currentColor"/>
        <rect x="10" width="8" height="8" rx=".6652" ry=".6652" fill="currentColor"/>
        <rect x="10" y="10" width="8" height="8" rx=".6652" ry=".6652" fill="currentColor"/>
    </symbol>

    <!-- wave (skills inner bar) -->
    <symbol id="wave">
        <path d="m2.2266 0c-7.7128 11.2371 7.7116 12.7599 0 24-7.7128 11.2371 7.7116 12.7599 0 24H14V0H2.2266z" fill="currentColor"/> 
    </symbol>

    <!-- whatsapp (contacts button) -->
    <symbol id="whatsapp">
        <path d="m12.0007.0013c-9.6453-.1396-15.4817 11.2578-9.711 18.8835l-1.4976 4.4199 4.6086-1.4645c7.6947 5.2362 18.734-.5685 18.5981-9.9368.002-6.5618-5.382-11.9021-11.9981-11.9021zm7.0038 16.8191c-.29.8095-1.7175 1.5896-2.3602 1.6484-.6408.0588-.6408.5223-4.1981-.8664-3.5555-1.3896-5.8-5.0095-5.9763-5.2398-1.3188-1.6517-2.2886-4.5197-.2037-6.4844.5555-.5726 1.0127-.4061 1.6018-.4322.2047 0 .4957-.0862.7867.6076.2929.6948.9915 2.401 1.0787 2.5754.0863.1754.1441.3773.0294.6095-.1166.2322-.1744.3754-.3498.5773-.1754.2038-.3687.4531-.5251.6095-.1735.1725-.3583.3602-.1526.7071 1.043 1.8841 2.9765 3.4679 4.7593 4.126.3497.1716.5535.1423.7573-.09.2057-.2332.8768-1.0142 1.1071-1.3621.2332-.3479.4664-.2891.7886-.1725.3194.1137 2.0417.9526 2.3896 1.127.3488.1744.582.2616.6711.4047.0882.145.0882.8417-.2038 1.655z" fill="currentColor"/> 
    </symbol>

    <!-- e-mail (contacts button) -->
    <symbol id="email">
        <path d="m10.7236 9.6382L18 6V1.618C18 .7244 17.2756 0 16.382 0H3.618C2.7244 0 2 .7244 2 1.618V6l7.2764 3.6382c.4556.2278.9917.2278 1.4473 0z" fill="currentColor"/> 
        <path d="m18.3818 8c.8936 0 1.618.7244 1.618 1.618v8.7639c0 .8936-.7244 1.618-1.618 1.618h-16.7639c-.8936 0-1.618-.7244-1.618-1.618v-8.7639c0-.8936.7244-1.618 1.618-1.618.2512 0 .4989.0585.7236.1708l6.9348 3.4674c.4556.2278.9917.2278 1.4473 0l6.9348-3.4674c.2247-.1123.4724-.1708.7236-.1708z" fill="currentColor"/> 
    </symbol>

    <!-- linkedin (contacts button) -->
    <symbol id="linkedin">
        <path d="m17.0385 17.0433.0013.0007v-5.2381c0-2.5707-.5548-4.5459-3.5556-4.5459h.006c-.04-.0013-.08-.002-.1207-.002-1.1423 0-2.1413.6135-2.6934 1.5437h-.0387v-1.301H7.7926v9.5431h2.9615v-4.7226c0-1.245.2354-2.4493 1.7798-2.4493 1.5204 0 1.5431 1.4237 1.5431 2.5307v4.6406h2.9615zM4.4472 6.1943l-.0007.0007h.002c.949 0 1.7185-.7696 1.7185-1.7185v-.0027c0-.9496-.7702-1.7191-1.7198-1.7191s-1.7198.7702-1.7198 1.7198.7695 1.7198 1.7198 1.7198zm1.4844 10.8489V7.5H2.9615v9.5432h2.9701zM18.5203 0h-.0033.0193c.8009 0 1.451.6429 1.4637 1.4411v17.1192C19.9873 19.3578 19.3371 20 18.5369 20H1.4577C.6582 20 .0093 19.3564-0 18.5589V1.4397C.0093.6428.6582-0 1.4577-0h17.0626z" fill="currentColor"/> 
    </symbol>

    <!-- github (contacts button) -->
    <symbol id="github">
        <path d="m10 0c5.523 0 10 4.5898 10 10.2529 0 4.5293-2.862 8.3711-6.833 9.728-.507.1011-.687-.2187-.687-.4922 0-.3379.012-1.4419.012-2.814 0-.9556-.32-1.5796-.679-1.8979 2.227-.2539 4.567-1.1211 4.567-5.0591 0-1.1196-.388-2.0337-1.03-2.7519.104-.2588.447-1.3018-.098-2.7139 0 0-.838-.2749-2.747 1.0513-.799-.2271-1.655-.3413-2.505-.3452-.85.0039-1.705.1182-2.503.3452-1.911-1.3262-2.751-1.0513-2.751-1.0513-.543 1.4121-.2 2.4551-.097 2.7139-.639.7183-1.03 1.6323-1.03 2.7519 0 3.9282 2.335 4.8081 4.556 5.0674-.286.2559-.545.708-.635 1.3706-.57.2622-2.018.7153-2.91-.8516 0 0-.529-.9853-1.533-1.0571 0 0-.975-.0132-.068.623 0 0 .655.3149 1.11 1.5 0 0 .587 1.8301 3.369 1.21.005.8569.014 1.665.014 1.9087 0 .271-.184.5884-.683.4932C2.865 18.6269 0 14.7832 0 10.2529 0 4.5898 4.478 0 10 0" fill="currentColor"/> 
    </symbol>

    <!-- instagram (contacts button) -->
    <symbol id="instagram">
        <path d="m5.8697.1226C4.2418.1963 2.8309.5943 1.6915 1.7286.5482 2.8692.1552 4.2857.0815 5.8965c-.0458 1.0054-.3134 8.6016.4627 10.5938.5234 1.3438 1.5542 2.3775 2.9105 2.9024.6328.2461 1.3553.4131 2.415.4614 8.8608.4009 12.1454.1826 13.5305-3.3638.2458-.6314.4149-1.353.4617-2.4102.405-8.8834-.0657-10.8092-1.61-12.3517C17.027.5069 15.5862-.3247 5.8697.1226m.0815 17.9449c-.9702-.0435-1.4965-.2056-1.8478-.3413-.8836-.3433-1.5473-1.0044-1.8886-1.8828-.5911-1.5137-.395-8.7032-.3423-9.8663.0517-1.1397.2826-2.1807 1.0866-2.9849.995-.9927 2.2806-1.479 11.034-1.084 1.1423.0518 2.1861.2822 2.9921 1.084.995.9927 1.4886 2.2881 1.0866 11.0079-.0438.9678-.206 1.4927-.3423 1.8433-.9005 2.3076-2.9722 2.6284-11.7783 2.2241m8.1385-13.378c0 .6572.5343 1.1914 1.1941 1.1914s1.195-.5342 1.195-1.1914c0-.6567-.5353-1.1909-1.195-1.1909s-1.1941.5342-1.1941 1.1909m-9.227 5.2984c0 2.815 2.2876 5.0972 5.1095 5.0972s5.1095-2.2822 5.1095-5.0972-2.2876-5.0957-5.1095-5.0957S4.8627 7.173 4.8627 9.9879m1.793 0c0-1.8262 1.4846-3.3081 3.3165-3.3081s3.3165 1.4819 3.3165 3.3081c0 1.8276-1.4846 3.3096-3.3165 3.3096s-3.3165-1.4819-3.3165-3.3096" fill="currentColor"/> 
    </symbol>

    <!-- pen (contacts decoration) 0 0 16 24 -->
    <symbol id="pen">
        <path d="m12.1124 20H3.8876c-.5678 0-1.0281.4477-1.0281 1v2c0 .5522.4603 1 1.0281 1h8.2249c.5678 0 1.0281-.4478 1.0281-1v-2c0-.5523-.4603-1-1.0281-1z" fill="currentColor"/> 
        <path d="m15.8107 12.1272L10.3083.5314C10.1546.2075 9.8213-0 9.4545-0c-.5194 0-.9404.4095-.9404.9147v10.3336c0 .1808.0833.3632.2451.4523.4667.2568.783.7404.783 1.2994 0 .8284-.6904 1.5-1.5422 1.5s-1.5422-.6716-1.5422-1.5c0-.559.3163-1.0425.783-1.2994.1618-.0891.2451-.2714.2451-.4523V.9147C7.4859.4095 7.0648-0 6.5455-0c-.3668 0-.7002.2075-.8538.5314L.1893 12.1272c-.2618.5516-.2516 1.1891.0278 1.7325l2.3582 4.5875c.1741.3388.5301.5528.9195.5528h9.0103c.3894 0 .7454-.214.9195-.5528l2.3582-4.5875c.2794-.5434.2896-1.1809.0278-1.7325z" fill="currentColor"/> 
    </symbol>

    <!-- frame (contacts decoration) 0 0 24 24 -->
    <symbol id="frame">
        <path d="m20.5 19V5H20c-.5523 0-1-.4477-1-1v-.5H5V4c0 .5523-.4477 1-1 1h-.5v14h1c.2761 0 .5.2239.5.5v1h14v-1c0-.2761.2239-.5.5-.5h1zm2 3.5v-2h-2v2h2zm-19 0v-2h-2v2h2zm-2-21v2h2v-2h-2zm19 0v2h2v-2h-2zM24 4c0 .5523-.4477 1-1 1h-.5v14h1c.2761 0 .5.2239.5.5v4c0 .2761-.2239.5-.5.5h-4c-.2761 0-.5-.2239-.5-.5v-1H5v1c0 .2761-.2239.5-.5.5h-4c-.2761 0-.5-.2239-.5-.5v-4c0-.2761.2239-.5.5-.5h1V5H1c-.5523 0-1-.4477-1-1V1c0-.5523.4477-1 1-1h3c.5523 0 1 .4477 1 1v.5h14V1c0-.5523.4477-1 1-1h3c.5523 0 1 .4477 1 1v3z" fill="currentColor"/>  
    </symbol>

    <!-- link (for text links) -->
    <symbol id="link">
        <path d="m11.2613 8.8602 1.715-1.029 1.5435 2.5725c.5683.9472.2611 2.1757-.686 2.744l-5.145 3.087c-.9472.5683-2.1757.2611-2.744-.686L.2853 6.1163c-.5683-.9472-.2611-2.1757.686-2.744l5.145-3.087c.9471-.5683 2.1756-.2612 2.744.686l2.058 3.43-1.715 1.029-1.5435-2.5725c-.2842-.4736-.8984-.6272-1.372-.343l-3.43 2.058c-.4736.2842-.6272.8984-.343 1.372l4.6304 7.7175c.2841.4735.8984.6272 1.372.343l3.43-2.058c.4736-.2842.6271-.8985.343-1.372l-1.029-1.715z" fill="currentColor"/> 
        <path d="m13.1477 4.2298c.9472-.5683 2.1757-.2612 2.744.686l5.6595 9.4324c.5683.9472.2611 2.1757-.686 2.744l-5.145 3.087c-.9472.5683-2.1757.2611-2.744-.686l-2.058-3.43 1.715-1.029 1.5435 2.5725c.2841.4735.8984.6272 1.372.343l3.43-2.058c.4736-.2842.6271-.8985.343-1.372l-4.6305-7.7174c-.2842-.4736-.8984-.6272-1.372-.343l-3.43 2.058c-.4736.2842-.6272.8984-.343 1.372l1.029 1.715-1.715 1.029-1.5435-2.5725c-.5683-.9472-.2611-2.1757.686-2.744l5.145-3.087z" fill="currentColor"/> 
    </symbol>
</svg>

